<mxfile host="Electron" agent="Mozilla/5.0 (Windows NT 10.0; Win64; x64) AppleWebKit/537.36 (KHTML, like Gecko) draw.io/24.7.8 Chrome/128.0.6613.36 Electron/32.0.1 Safari/537.36" version="24.7.8">
  <diagram id="WVXA5cLLFsREHM9dcwGu" name="Page-1">
    <mxGraphModel dx="543" dy="379" grid="1" gridSize="10" guides="1" tooltips="1" connect="1" arrows="1" fold="1" page="1" pageScale="1" pageWidth="1169" pageHeight="827" math="0" shadow="0">
      <root>
        <mxCell id="0" />
        <mxCell id="1" parent="0" />
        <mxCell id="2" value="" style="endArrow=none;html=1;" parent="1" edge="1">
          <mxGeometry width="50" height="50" relative="1" as="geometry">
            <mxPoint x="40" y="114" as="sourcePoint" />
            <mxPoint x="1120" y="114" as="targetPoint" />
          </mxGeometry>
        </mxCell>
        <mxCell id="5" value="&lt;font style=&quot;font-size: 20px;&quot;&gt;buhlerlabs&amp;nbsp; &amp;nbsp;10.x.x.x&lt;/font&gt;" style="edgeLabel;html=1;align=center;verticalAlign=middle;resizable=0;points=[];" parent="2" vertex="1" connectable="0">
          <mxGeometry x="0.4864" y="4" relative="1" as="geometry">
            <mxPoint x="188" y="-10" as="offset" />
          </mxGeometry>
        </mxCell>
        <mxCell id="4" value="" style="endArrow=none;html=1;" parent="1" edge="1">
          <mxGeometry width="50" height="50" relative="1" as="geometry">
            <mxPoint x="522" y="214" as="sourcePoint" />
            <mxPoint x="522" y="114" as="targetPoint" />
          </mxGeometry>
        </mxCell>
        <mxCell id="10" value="" style="endArrow=none;html=1;fontSize=20;" parent="1" edge="1">
          <mxGeometry width="50" height="50" relative="1" as="geometry">
            <mxPoint x="363" y="344" as="sourcePoint" />
            <mxPoint x="363" y="214" as="targetPoint" />
          </mxGeometry>
        </mxCell>
        <mxCell id="12" value="" style="endArrow=none;html=1;fontSize=20;exitX=0.158;exitY=0.5;exitDx=0;exitDy=0;exitPerimeter=0;" parent="1" source="9" edge="1">
          <mxGeometry width="50" height="50" relative="1" as="geometry">
            <mxPoint x="733" y="304" as="sourcePoint" />
            <mxPoint x="573.0000000000002" y="214" as="targetPoint" />
            <Array as="points">
              <mxPoint x="733" y="274" />
              <mxPoint x="573" y="274" />
            </Array>
          </mxGeometry>
        </mxCell>
        <mxCell id="3" value="" style="rounded=0;whiteSpace=wrap;html=1;" parent="1" vertex="1">
          <mxGeometry x="333" y="194" width="270" height="40" as="geometry" />
        </mxCell>
        <mxCell id="13" value="V1 10.x.x.x (DHCP)" style="text;html=1;align=center;verticalAlign=middle;resizable=0;points=[];autosize=1;strokeColor=none;fillColor=none;fontSize=20;" parent="1" vertex="1">
          <mxGeometry x="608" y="160" width="200" height="40" as="geometry" />
        </mxCell>
        <mxCell id="14" value="V2 192.168.250.x (Static)" style="text;html=1;align=center;verticalAlign=middle;resizable=0;points=[];autosize=1;strokeColor=none;fillColor=none;fontSize=20;" parent="1" vertex="1">
          <mxGeometry x="608" y="220" width="250" height="40" as="geometry" />
        </mxCell>
        <mxCell id="15" value="1&lt;span style=&quot;white-space: pre;&quot;&gt;&#x9;&lt;/span&gt;...&lt;span style=&quot;white-space: pre;&quot;&gt;&#x9;&lt;/span&gt;n =&amp;gt;" style="text;html=1;align=center;verticalAlign=middle;resizable=0;points=[];autosize=1;strokeColor=none;fillColor=none;fontSize=20;" parent="1" vertex="1">
          <mxGeometry x="383" y="354" width="150" height="40" as="geometry" />
        </mxCell>
        <mxCell id="16" value="1&lt;span style=&quot;white-space: pre;&quot;&gt;&#x9;&lt;/span&gt;...&lt;span style=&quot;white-space: pre;&quot;&gt;&#x9;&lt;/span&gt;n =&amp;gt;" style="text;html=1;align=center;verticalAlign=middle;resizable=0;points=[];autosize=1;strokeColor=none;fillColor=none;fontSize=20;" parent="1" vertex="1">
          <mxGeometry x="903" y="354" width="150" height="40" as="geometry" />
        </mxCell>
        <mxCell id="17" value="W" style="rounded=0;whiteSpace=wrap;html=1;fontSize=20;" parent="1" vertex="1">
          <mxGeometry x="163" y="444" width="50" height="70" as="geometry" />
        </mxCell>
        <mxCell id="19" value="V1" style="text;html=1;align=center;verticalAlign=middle;resizable=0;points=[];autosize=1;strokeColor=none;fillColor=none;fontSize=20;rotation=0;" parent="1" vertex="1">
          <mxGeometry x="193" y="414" width="50" height="40" as="geometry" />
        </mxCell>
        <mxCell id="21" value="" style="endArrow=none;html=1;fontSize=20;" parent="1" edge="1">
          <mxGeometry width="50" height="50" relative="1" as="geometry">
            <mxPoint x="213" y="454" as="sourcePoint" />
            <mxPoint x="233" y="344" as="targetPoint" />
            <Array as="points">
              <mxPoint x="233" y="454" />
            </Array>
          </mxGeometry>
        </mxCell>
        <mxCell id="23" value="PLC" style="rounded=0;whiteSpace=wrap;html=1;fontSize=20;" parent="1" vertex="1">
          <mxGeometry x="243" y="634" width="70" height="30" as="geometry" />
        </mxCell>
        <mxCell id="24" value="IPC" style="rounded=0;whiteSpace=wrap;html=1;fontSize=20;" parent="1" vertex="1">
          <mxGeometry x="243" y="674" width="70" height="30" as="geometry" />
        </mxCell>
        <mxCell id="25" value="" style="endArrow=none;html=1;fontSize=20;exitX=-0.002;exitY=0.668;exitDx=0;exitDy=0;exitPerimeter=0;entryX=0.998;entryY=0.857;entryDx=0;entryDy=0;entryPerimeter=0;" parent="1" source="23" target="17" edge="1">
          <mxGeometry width="50" height="50" relative="1" as="geometry">
            <mxPoint x="223" y="574" as="sourcePoint" />
            <mxPoint x="223" y="504" as="targetPoint" />
            <Array as="points">
              <mxPoint x="233" y="654" />
              <mxPoint x="233" y="574" />
              <mxPoint x="233" y="504" />
            </Array>
          </mxGeometry>
        </mxCell>
        <mxCell id="26" value="" style="endArrow=none;html=1;fontSize=20;exitX=-0.003;exitY=0.677;exitDx=0;exitDy=0;entryX=1;entryY=1;entryDx=0;entryDy=0;exitPerimeter=0;" parent="1" source="24" target="17" edge="1">
          <mxGeometry width="50" height="50" relative="1" as="geometry">
            <mxPoint x="242.96000000000004" y="614.05" as="sourcePoint" />
            <mxPoint x="213.00000000000006" y="544" as="targetPoint" />
            <Array as="points">
              <mxPoint x="223" y="694" />
              <mxPoint x="223" y="514" />
            </Array>
          </mxGeometry>
        </mxCell>
        <mxCell id="27" value="W" style="rounded=0;whiteSpace=wrap;html=1;fontSize=20;" parent="1" vertex="1">
          <mxGeometry x="313" y="444" width="50" height="70" as="geometry" />
        </mxCell>
        <mxCell id="28" value="V1&lt;span style=&quot;white-space: pre;&quot;&gt;&#x9;&lt;/span&gt;192.168.250.x" style="text;html=1;align=center;verticalAlign=middle;resizable=0;points=[];autosize=1;strokeColor=none;fillColor=none;fontSize=20;rotation=0;" parent="1" vertex="1">
          <mxGeometry x="343" y="414" width="190" height="40" as="geometry" />
        </mxCell>
        <mxCell id="29" value="" style="endArrow=none;html=1;fontSize=20;" parent="1" edge="1">
          <mxGeometry width="50" height="50" relative="1" as="geometry">
            <mxPoint x="363" y="454" as="sourcePoint" />
            <mxPoint x="383" y="344" as="targetPoint" />
            <Array as="points">
              <mxPoint x="383" y="454" />
            </Array>
          </mxGeometry>
        </mxCell>
        <mxCell id="30" value="PLC" style="rounded=0;whiteSpace=wrap;html=1;fontSize=20;" parent="1" vertex="1">
          <mxGeometry x="393" y="634" width="70" height="30" as="geometry" />
        </mxCell>
        <mxCell id="31" value="IPC" style="rounded=0;whiteSpace=wrap;html=1;fontSize=20;" parent="1" vertex="1">
          <mxGeometry x="393" y="674" width="70" height="30" as="geometry" />
        </mxCell>
        <mxCell id="32" value="" style="endArrow=none;html=1;fontSize=20;exitX=-0.002;exitY=0.668;exitDx=0;exitDy=0;exitPerimeter=0;entryX=0.998;entryY=0.857;entryDx=0;entryDy=0;entryPerimeter=0;" parent="1" source="30" target="27" edge="1">
          <mxGeometry width="50" height="50" relative="1" as="geometry">
            <mxPoint x="373" y="574" as="sourcePoint" />
            <mxPoint x="373" y="504" as="targetPoint" />
            <Array as="points">
              <mxPoint x="383" y="654" />
              <mxPoint x="383" y="504" />
            </Array>
          </mxGeometry>
        </mxCell>
        <mxCell id="33" value="" style="endArrow=none;html=1;fontSize=20;exitX=0.003;exitY=0.657;exitDx=0;exitDy=0;exitPerimeter=0;entryX=1;entryY=1;entryDx=0;entryDy=0;" parent="1" source="31" target="27" edge="1">
          <mxGeometry width="50" height="50" relative="1" as="geometry">
            <mxPoint x="392.96000000000004" y="614.0500000000001" as="sourcePoint" />
            <mxPoint x="363.00000000000006" y="544" as="targetPoint" />
            <Array as="points">
              <mxPoint x="373" y="694" />
              <mxPoint x="373" y="514" />
            </Array>
          </mxGeometry>
        </mxCell>
        <mxCell id="35" value="V2" style="text;html=1;align=center;verticalAlign=middle;resizable=0;points=[];autosize=1;strokeColor=none;fillColor=none;fontSize=20;rotation=0;" parent="1" vertex="1">
          <mxGeometry x="183" y="504" width="50" height="40" as="geometry" />
        </mxCell>
        <mxCell id="36" value="V2&lt;span style=&quot;white-space: pre;&quot;&gt;&#x9;&lt;/span&gt;192.168.1.x" style="text;html=1;align=center;verticalAlign=middle;resizable=0;points=[];autosize=1;strokeColor=none;fillColor=none;fontSize=20;rotation=0;" parent="1" vertex="1">
          <mxGeometry x="333" y="504" width="170" height="40" as="geometry" />
        </mxCell>
        <mxCell id="37" value="192.168.1.x" style="text;html=1;align=center;verticalAlign=middle;resizable=0;points=[];autosize=1;strokeColor=none;fillColor=none;fontSize=20;" parent="1" vertex="1">
          <mxGeometry x="463" y="629" width="130" height="40" as="geometry" />
        </mxCell>
        <mxCell id="38" value="192.168.1.x" style="text;html=1;align=center;verticalAlign=middle;resizable=0;points=[];autosize=1;strokeColor=none;fillColor=none;fontSize=20;" parent="1" vertex="1">
          <mxGeometry x="463" y="669" width="130" height="40" as="geometry" />
        </mxCell>
        <mxCell id="8" value="" style="rounded=0;whiteSpace=wrap;html=1;" parent="1" vertex="1">
          <mxGeometry x="153" y="314" width="380" height="40" as="geometry" />
        </mxCell>
        <mxCell id="40" value="W" style="rounded=0;whiteSpace=wrap;html=1;fontSize=20;" parent="1" vertex="1">
          <mxGeometry x="678" y="444" width="50" height="70" as="geometry" />
        </mxCell>
        <mxCell id="41" value="V1" style="text;html=1;align=center;verticalAlign=middle;resizable=0;points=[];autosize=1;strokeColor=none;fillColor=none;fontSize=20;rotation=0;" parent="1" vertex="1">
          <mxGeometry x="708" y="414" width="50" height="40" as="geometry" />
        </mxCell>
        <mxCell id="42" value="" style="endArrow=none;html=1;fontSize=20;" parent="1" edge="1">
          <mxGeometry width="50" height="50" relative="1" as="geometry">
            <mxPoint x="728" y="454" as="sourcePoint" />
            <mxPoint x="748" y="344" as="targetPoint" />
            <Array as="points">
              <mxPoint x="748" y="454" />
            </Array>
          </mxGeometry>
        </mxCell>
        <mxCell id="43" value="PLC" style="rounded=0;whiteSpace=wrap;html=1;fontSize=20;" parent="1" vertex="1">
          <mxGeometry x="758" y="634" width="70" height="30" as="geometry" />
        </mxCell>
        <mxCell id="44" value="IPC" style="rounded=0;whiteSpace=wrap;html=1;fontSize=20;" parent="1" vertex="1">
          <mxGeometry x="758" y="674" width="70" height="30" as="geometry" />
        </mxCell>
        <mxCell id="45" value="" style="endArrow=none;html=1;fontSize=20;exitX=-0.002;exitY=0.668;exitDx=0;exitDy=0;exitPerimeter=0;entryX=0.998;entryY=0.857;entryDx=0;entryDy=0;entryPerimeter=0;" parent="1" source="43" target="40" edge="1">
          <mxGeometry width="50" height="50" relative="1" as="geometry">
            <mxPoint x="738" y="574" as="sourcePoint" />
            <mxPoint x="738" y="504" as="targetPoint" />
            <Array as="points">
              <mxPoint x="748" y="654" />
              <mxPoint x="748" y="574" />
              <mxPoint x="748" y="504" />
            </Array>
          </mxGeometry>
        </mxCell>
        <mxCell id="46" value="" style="endArrow=none;html=1;fontSize=20;exitX=-0.003;exitY=0.677;exitDx=0;exitDy=0;entryX=1;entryY=1;entryDx=0;entryDy=0;exitPerimeter=0;" parent="1" source="44" target="40" edge="1">
          <mxGeometry width="50" height="50" relative="1" as="geometry">
            <mxPoint x="757.96" y="614.05" as="sourcePoint" />
            <mxPoint x="728" y="544" as="targetPoint" />
            <Array as="points">
              <mxPoint x="738" y="694" />
              <mxPoint x="738" y="514" />
            </Array>
          </mxGeometry>
        </mxCell>
        <mxCell id="47" value="W" style="rounded=0;whiteSpace=wrap;html=1;fontSize=20;" parent="1" vertex="1">
          <mxGeometry x="828" y="444" width="50" height="70" as="geometry" />
        </mxCell>
        <mxCell id="48" value="V1" style="text;html=1;align=center;verticalAlign=middle;resizable=0;points=[];autosize=1;strokeColor=none;fillColor=none;fontSize=20;rotation=0;" parent="1" vertex="1">
          <mxGeometry x="858" y="414" width="50" height="40" as="geometry" />
        </mxCell>
        <mxCell id="49" value="" style="endArrow=none;html=1;fontSize=20;" parent="1" edge="1">
          <mxGeometry width="50" height="50" relative="1" as="geometry">
            <mxPoint x="878" y="454" as="sourcePoint" />
            <mxPoint x="898" y="344" as="targetPoint" />
            <Array as="points">
              <mxPoint x="898" y="454" />
            </Array>
          </mxGeometry>
        </mxCell>
        <mxCell id="50" value="PLC" style="rounded=0;whiteSpace=wrap;html=1;fontSize=20;" parent="1" vertex="1">
          <mxGeometry x="908" y="634" width="70" height="30" as="geometry" />
        </mxCell>
        <mxCell id="51" value="IPC" style="rounded=0;whiteSpace=wrap;html=1;fontSize=20;" parent="1" vertex="1">
          <mxGeometry x="908" y="674" width="70" height="30" as="geometry" />
        </mxCell>
        <mxCell id="52" value="" style="endArrow=none;html=1;fontSize=20;exitX=-0.002;exitY=0.668;exitDx=0;exitDy=0;exitPerimeter=0;entryX=0.998;entryY=0.857;entryDx=0;entryDy=0;entryPerimeter=0;" parent="1" source="50" target="47" edge="1">
          <mxGeometry width="50" height="50" relative="1" as="geometry">
            <mxPoint x="888" y="574" as="sourcePoint" />
            <mxPoint x="888" y="504" as="targetPoint" />
            <Array as="points">
              <mxPoint x="898" y="654" />
              <mxPoint x="898" y="504" />
            </Array>
          </mxGeometry>
        </mxCell>
        <mxCell id="53" value="" style="endArrow=none;html=1;fontSize=20;exitX=0.003;exitY=0.657;exitDx=0;exitDy=0;exitPerimeter=0;entryX=1;entryY=1;entryDx=0;entryDy=0;" parent="1" source="51" target="47" edge="1">
          <mxGeometry width="50" height="50" relative="1" as="geometry">
            <mxPoint x="907.96" y="614.0500000000001" as="sourcePoint" />
            <mxPoint x="878" y="544" as="targetPoint" />
            <Array as="points">
              <mxPoint x="888" y="694" />
              <mxPoint x="888" y="514" />
            </Array>
          </mxGeometry>
        </mxCell>
        <mxCell id="54" value="V2" style="text;html=1;align=center;verticalAlign=middle;resizable=0;points=[];autosize=1;strokeColor=none;fillColor=none;fontSize=20;rotation=0;" parent="1" vertex="1">
          <mxGeometry x="698" y="504" width="50" height="40" as="geometry" />
        </mxCell>
        <mxCell id="55" value="V2" style="text;html=1;align=center;verticalAlign=middle;resizable=0;points=[];autosize=1;strokeColor=none;fillColor=none;fontSize=20;rotation=0;" parent="1" vertex="1">
          <mxGeometry x="848" y="504" width="50" height="40" as="geometry" />
        </mxCell>
        <mxCell id="9" value="" style="rounded=0;whiteSpace=wrap;html=1;" parent="1" vertex="1">
          <mxGeometry x="673" y="314" width="380" height="40" as="geometry" />
        </mxCell>
      </root>
    </mxGraphModel>
  </diagram>
</mxfile>
